<?xml version="1.0" encoding="utf-8" ?>
<svg xmlns="http://www.w3.org/2000/svg" xmlns:xlink="http://www.w3.org/1999/xlink" width="1214" height="1226">
	<path fill="#272727" d="M68.8893 0L1145.02 0C1167.25 3.47394 1186.23 11.9126 1199.76 30.6138C1208.6 42.8219 1210.12 52.2302 1214 66.2124L1214 1153.87C1210.86 1165.85 1208.86 1175.85 1201.92 1186.47C1191.17 1202.97 1174.25 1214.46 1154.94 1218.36C1140.78 1221.21 1125.12 1219.95 1110.72 1219.94L1047.23 1219.91L802.142 1219.92L312.118 1219.92L151.129 1219.92L98.7479 1219.92C88.9439 1219.92 78.9992 1220.24 69.2132 1219.77C56.4826 1219.15 43.5034 1214.43 32.9607 1207.36C12.8688 1193.89 4.55854 1175.77 0 1152.79L0 67.2767C2.63595 53.9877 6.10535 42.1649 14.0881 30.9945C27.7346 11.8989 46.4184 3.79675 68.8893 0Z"/>
	<path fill="#FEFEFE" d="M613.796 368.504C638.337 386.594 662.334 405.56 686.562 424.075L817.861 524.418C794.758 543.066 770.347 560.472 746.671 578.412L604.493 686.109L488 774.423C493.172 759.582 497.444 744.282 502.093 729.264L528.636 643.473L613.796 368.504Z"/>
	<path fill="#FEFEFE" d="M817.511 534.514C817.843 538.188 745.972 767.616 738.995 790.176L483.826 790.128L483.67 788.751C484.413 787.062 485.587 786.056 486.99 784.916C498.717 775.384 511.219 766.587 523.273 757.451L598.152 700.693L817.511 534.514Z"/>
	<path fill="#FEFEFE" d="M596.769 371.149L597.099 371.482C597.158 376.052 590.483 394.231 588.813 399.61L569.201 462.924L471.577 778.282C464.651 759.068 459.288 738.939 453.305 719.382C446.381 698.405 440.218 677.105 433.689 655.998L393.586 526.45C415.958 508.792 438.917 491.78 461.565 474.472L596.769 371.149Z"/>
	<path fill="#FEFEFE" d="M720.478 1019.41L729.251 1019.42L729.258 1119.33C726.544 1119.37 723.841 1119.26 721.129 1119.16L720.604 1105.98C720.355 1106.39 720.107 1106.8 719.846 1107.2C715.366 1114.06 708.515 1118.76 700.433 1120.31C690.487 1122.21 681.765 1119.61 673.552 1113.99C668.932 1109.61 665.427 1104.98 663.237 1098.95C659.402 1088.4 659.874 1075.61 664.788 1065.48C668.64 1057.55 675.165 1051.65 683.546 1048.77C691.398 1046.07 701.086 1046.25 708.512 1050.07C714.718 1053.25 718.32 1058 720.459 1064.48L720.478 1019.41Z"/>
	<path fill="#272727" d="M690.033 1055.53C695.056 1055.09 699.896 1055.14 704.603 1057.19C711.018 1059.98 715.528 1065.72 717.784 1072.23C720.758 1080.81 720.331 1091.47 716.084 1099.54C712.497 1106.36 707.371 1110.02 700.211 1112.33C694.195 1113.07 688.739 1112.88 683.259 1109.92C677.177 1106.63 673.094 1100.76 671.171 1094.21C668.638 1085.59 669.328 1075.07 673.829 1067.21C677.552 1060.71 682.989 1057.39 690.033 1055.53Z"/>
	<path fill="#FEFEFE" d="M613.979 1047.2C621.365 1046.58 629.124 1048.27 635.368 1052.3C643.219 1057.38 648.281 1065.8 650.095 1074.87C652.208 1085.43 650.347 1097.9 644.229 1106.89C638.676 1115.04 630.937 1118.86 621.517 1120.64C612.36 1121.23 604.012 1120.24 596.355 1114.55C588.689 1108.85 584.246 1100 582.963 1090.66C581.513 1080.09 583.285 1068.5 589.92 1059.88C596.101 1051.86 604.222 1048.44 613.979 1047.2Z"/>
	<path fill="#272727" d="M612.236 1055.49C617.964 1054.93 623.465 1055.47 628.598 1058.26C634.452 1061.43 638.419 1067.05 640.285 1073.36C642.766 1081.75 642.201 1092.3 637.973 1100.03C634.119 1107.07 628.576 1110.28 621.199 1112.59C615.85 1113.07 611.073 1112.96 606.096 1110.57C599.773 1107.53 595.349 1101.8 593.248 1095.18C590.529 1086.62 590.9 1076.04 595.261 1068.13C599.107 1061.15 604.748 1057.54 612.236 1055.49Z"/>
	<path fill="#FEFEFE" d="M854.632 204.725C868.89 204.297 883.261 204.659 897.53 204.657L979.125 204.649L979.167 949.555L856.506 949.557C855.9 949.4 855.585 949.1 855.092 948.728L855.217 947.502C858.416 945.77 962.652 946.649 976.163 946.639L976.108 207.594L856.511 207.621C854.914 206.688 855.119 206.544 854.632 204.725Z"/>
	<path fill="#FEFEFE" d="M234.845 204.661C247.564 204.662 356.229 203.871 358.525 205.138L358.904 206.524L358.316 207.409C344.733 208.348 330.627 207.59 316.995 207.589L237.918 207.572C237.174 270.793 237.898 334.114 237.897 397.348L237.896 775.045C237.896 831.31 238.582 887.673 237.795 943.927C237.782 944.848 237.95 945.445 238.354 946.265L239.897 946.654C252.239 946.653 356.536 945.707 358.912 947.308L358.792 948.352C357.459 949.268 356.303 949.493 354.724 949.61C343.008 950.472 328.808 949.541 316.778 949.542L234.841 949.561L234.845 204.661Z"/>
	<path fill="#FEFEFE" d="M773.141 1047.2C774.312 1047.12 775.486 1047.09 776.66 1047.09C784.685 1047.16 792.333 1049.83 797.941 1055.73C806.388 1064.63 807.094 1075.11 806.898 1086.61L751.711 1086.63C752.826 1094.4 754.519 1101.58 760.502 1107.16C765.075 1111.44 771.221 1113.63 777.47 1113.2C784.104 1112.74 789.062 1109.49 793.254 1104.55C794.661 1102.42 795.708 1099.95 796.852 1097.67L805.078 1097.72C804.105 1101.41 802.748 1105.08 800.672 1108.31C796.402 1114.93 790.116 1118.77 782.438 1120.24C773.737 1121.9 764.27 1120.64 756.979 1115.38C749.25 1109.81 745.006 1100.88 743.649 1091.63C742.016 1080.51 743.473 1067.93 750.588 1058.84C756.411 1051.4 764.06 1048.32 773.141 1047.2Z"/>
	<path fill="#272727" d="M770.756 1055.5C777.885 1054.99 784.779 1055.21 790.532 1060.11C796.321 1065.03 797.643 1071.61 798.397 1078.75L780.3 1078.78L751.791 1078.77C752.589 1074.31 753.363 1070.2 755.606 1066.18C759.054 1060 764.241 1057.38 770.756 1055.5Z"/>
	<path fill="#FEFEFE" d="M520.405 1061.98C521.551 1059.47 522.815 1057.05 524.672 1054.99C529.388 1049.75 535.954 1047.13 542.945 1047.01C549.868 1046.89 556.855 1049.18 561.758 1054.19C565.046 1057.55 567.157 1061.89 568.192 1066.45C570.669 1077.37 569.27 1106.45 569.24 1119.32L560.425 1119.31C560.316 1107.23 563.226 1069.14 555.821 1060.57C552.887 1057.18 548.528 1055.45 544.106 1055.27C538.945 1055.06 533.628 1056.79 529.898 1060.44C521.492 1068.65 523.368 1085.08 523.422 1095.8L523.437 1119.32L514.592 1119.32C514.488 1106.32 516.192 1080.37 513.89 1069.15C513.166 1065.62 511.825 1062.3 509.348 1059.62C506.538 1056.59 502.722 1055.27 498.644 1055.22C493.499 1055.15 488.595 1056.81 485.014 1060.59C474.672 1071.5 477.754 1104.45 477.802 1119.33L469.048 1119.32L469.016 1048.75L477.124 1048.76L477.763 1059.65C478.466 1058.23 479.207 1056.85 480.135 1055.57C484.087 1050.12 489.856 1048.17 496.224 1047.19C500.462 1046.7 505.911 1047.48 509.732 1049.3C515.379 1051.99 518.393 1056.26 520.405 1061.98Z"/>
	<path fill="#FEFEFE" d="M364.716 1022.07C381.434 1021.77 398.204 1022.04 414.928 1022.05L414.776 1030.21L371.942 1030.2C369.7 1040.3 368.264 1050.7 366.478 1060.9C367.485 1059.96 368.502 1059.01 369.59 1058.16C376.132 1053.05 384.731 1051.67 392.809 1052.52C401.421 1053.44 409.163 1057.55 414.449 1064.48C420.541 1072.45 422.498 1082.88 420.95 1092.69C419.517 1101.76 414.983 1110.16 407.291 1115.44C398.757 1121.29 388.345 1121.79 378.496 1119.85C375.525 1119.09 372.675 1117.91 370.028 1116.36C360.58 1110.82 357.055 1102.67 354.498 1092.57L363.165 1092.54C365.041 1099.19 367.919 1105.28 373.973 1109.09C379.795 1112.77 388.244 1113.68 394.939 1112.1C400.722 1110.74 405.468 1107.01 408.522 1101.96C412.6 1095.22 413.643 1086.01 411.657 1078.44C409.995 1072.09 405.954 1066.31 400.207 1063.03C394.085 1059.55 386.591 1059.48 379.95 1061.41C372.652 1063.52 368.182 1068.13 364.518 1074.55L356.554 1074.49C359.883 1057.19 361.97 1039.49 364.716 1022.07Z"/>
	<path fill="#FEFEFE" d="M819.579 1019.42L828.483 1019.42L828.454 1119.32L819.568 1119.32L819.579 1019.42Z"/>
	<path fill="#FEFEFE" d="M328.172 1048.75L336.952 1048.73L336.987 1119.32L327.97 1119.33L328.172 1048.75Z"/>
	<path fill="#FEFEFE" d="M330.09 1021.57C332.074 1020.66 334.393 1020.89 336.158 1022.17C337.922 1023.46 338.858 1025.59 338.606 1027.76C338.354 1029.92 336.952 1031.79 334.94 1032.63C331.9 1033.9 328.4 1032.5 327.077 1029.48C325.753 1026.47 327.094 1022.94 330.09 1021.57Z"/>
</svg>
