<?xml version="1.0" encoding="utf-8" ?>
<svg xmlns="http://www.w3.org/2000/svg" xmlns:xlink="http://www.w3.org/1999/xlink" width="3499" height="1252">
	<path d="M532.975 90.9012C556.904 98.6947 578.912 114.174 600.314 127.148C616.928 137.098 633.629 146.902 650.415 156.559L762.22 221.695C784.515 234.594 808.978 246.737 829.701 262.043C828.604 284.325 829.148 306.885 828.746 329.21C846.728 317.968 865.92 306.024 885.032 296.871C893.217 300.296 901.01 305.343 908.746 309.726C923.696 318.195 938.594 326.754 953.441 335.402C980.801 351.267 1009.58 366.024 1035.87 383.536C1036.15 437.805 1036.13 492.075 1035.81 546.344C1023.51 557.64 1003.24 567.249 988.627 575.853C955.007 595.651 921.146 614.899 887.827 635.226C870.034 627.629 849.071 612.611 831.966 602.486C800.37 583.784 767.183 566.208 736.858 545.556C736.999 527.522 736.925 509.488 736.636 491.456C726.914 496.389 693.069 520.537 686.199 519.999C678.267 516.32 670.781 512.083 663.236 507.674C667.242 515.234 672.746 522.345 678.197 528.923C688.221 540.524 696.399 554.617 704.407 567.683C740.681 626.866 766.778 691.62 775.08 760.896C782.871 825.902 776.13 897.125 734.306 950.212C725.131 961.857 714.112 971.565 702.111 980.207C680.204 995.984 655.449 1008.52 631.946 1021.74C603.691 1037.64 575.2 1054.96 545.342 1067.66C536.847 1071.27 527.957 1074.43 518.744 1075.49C495.769 1078.13 473.517 1074.42 452.17 1065.87C430.13 1057.04 409.723 1043.41 389.357 1031.32L304.172 981.06C260.003 955.542 216.028 929.69 172.251 903.506C151.521 891.264 124.408 877.714 106.027 862.953C101.54 854.757 102.931 731.685 103.403 709.847C118.78 698.64 137.335 689.632 153.8 679.91L223.865 638.725C233.28 633.212 245.406 623.748 255.744 620.976C258.689 620.187 261.608 622.141 264.147 623.511C285.722 635.153 306.675 649.055 327.774 661.613L460.465 739.637C452.068 724.053 439.093 708.606 425.166 697.645C394.59 673.581 347.339 650.585 312.587 630.683C278.457 611.137 245.131 590.176 211.184 570.304C175.695 549.529 139.44 529.743 104.591 507.921C103.573 490.922 104.178 473.516 104.125 456.475L104.602 343.26C118.761 334.213 133.838 326.152 148.357 317.662L253.089 256.882L532.975 90.9012ZM133.481 351.902L349.961 478.703C403.068 509.665 484.841 551.436 526.488 593.266C574.615 641.605 607.839 706.725 624.532 772.485C639.143 830.043 642.385 905.092 624.861 962.194C619.143 980.824 610.472 997.627 602.207 1015.16C615.14 1010.94 628.512 1001.64 640.288 994.837C674.964 974.814 713.81 955.344 733.085 918.274C733.352 917.762 733.61 917.245 733.858 916.724C771.141 843.217 761.917 757.855 737.199 681.965C732.088 666.272 725.475 651.237 718.764 636.181C687.911 566.962 643.193 504.965 581.046 460.446C558.952 444.619 535.276 431.259 511.769 417.688C484.445 402.022 457.224 386.178 430.108 370.155C422.407 365.585 387.805 347.578 383.751 341.751C382.151 339.451 382.062 335.769 382.418 333.087C389.772 324.482 522.048 247.223 531.488 245.711C544.292 249.927 556.95 259.805 568.577 266.745C593.312 281.509 618.593 295.316 643.568 309.662C658.185 318.058 674 329.545 689.833 335.085C699.181 329.348 799.757 271.004 800.735 269.545C794.333 262.214 543.367 117.126 536.441 116.744C535.243 116.678 534.048 116.82 532.866 116.996C452.96 160.854 375.333 209.242 296.796 255.523C256.898 279.035 216.651 301.94 176.938 325.762C162.461 334.446 147.525 342.529 133.481 351.902ZM737.54 383.11C745.61 376.682 755.642 371.718 764.563 366.523C778.092 358.646 791.547 350.525 805.298 343.043C806.986 342.234 808.281 341.43 809.758 340.279C814.06 330.559 810.581 299.629 809.984 287.465C806.56 288.819 803.556 290.567 800.417 292.466C767.71 311.64 734.204 330.092 702.363 350.657C700.233 352.682 698.887 353.369 698.725 356.47C697.959 371.146 699.042 386.4 699.111 401.154C699.17 431.072 699.41 460.989 699.83 490.903C702.468 489.364 705.93 487.787 708.186 485.786C717.487 479.302 727.485 473.819 737.275 468.112C737.707 439.783 737.278 411.443 737.54 383.11ZM484.85 792.457C484.141 785.409 480.555 775.498 474.978 771.029C456.562 756.272 428.051 743.102 406.834 731.211C376.586 714.259 346.982 696.082 317.125 678.45C296.929 666.523 275.5 655.263 256.344 641.739C215.432 666.642 174.343 691.253 133.08 715.569C146.669 725.733 162.491 733.948 177.072 742.644L269.81 797.059L352.769 846.369C372.939 858.455 393.158 871.616 414.712 881.099C427.152 886.573 439.062 890.397 452.885 888.462C462.323 887.14 471.798 882.378 477.564 874.623C480.007 871.336 484.249 864.448 484.617 860.386C492.613 838.689 490.234 814.501 484.85 792.457ZM508.655 392.959C512.417 395.121 516.427 396.941 520.319 398.865C520.199 356.986 521.395 314.93 520.353 273.086C516.581 274.818 513.013 276.93 509.412 278.987C476.154 298.046 443.06 317.391 410.135 337.02C443.119 355.411 475.96 374.058 508.655 392.959ZM1013.72 408.917C974.756 432.538 935.562 455.776 896.143 478.627C896.116 491.086 896.122 599.657 898.381 603.465L900.542 604.139C920.202 591.583 940.965 580.676 961.099 568.891C979.968 557.846 998.493 545.725 1017.7 535.346C1017.41 523.108 1017.54 410.566 1017.27 409.972C1017.04 409.457 1016.46 409.185 1016.06 408.791L1013.72 408.917ZM882.394 321.7C856.977 338.64 829.915 353.414 803.559 368.84C792.157 375.513 779.777 381.962 769.15 389.796C790.936 404.88 814.964 417.746 837.78 431.276C852.161 439.804 867.709 451.27 883.27 457.151C885.248 457.898 886.972 458.011 889.045 457.557C890.47 457.244 891.791 456.645 893.09 455.997C914.353 445.094 934.811 433.425 955.278 421.104C972.591 410.682 989.785 399.343 1008.29 391.129C989.474 381.209 893.9 320.724 882.394 321.7Z"/>
	<path fill="white" fill-opacity="0.015686275" d="M699.83 490.903C699.41 460.989 699.17 431.072 699.111 401.154C699.042 386.4 697.959 371.146 698.725 356.47C698.887 353.369 700.233 352.682 702.363 350.657C703.279 361.404 704.495 371.978 704.768 382.791C705.154 398.052 702.874 478.497 706.199 484.935L708.186 485.786C705.93 487.787 702.468 489.364 699.83 490.903Z"/>
	<path fill="white" fill-opacity="0.011764706" d="M509.412 278.987C513.013 276.93 516.581 274.818 520.353 273.086C521.395 314.93 520.199 356.986 520.319 398.865C516.427 396.941 512.417 395.121 508.655 392.959C510.809 392.886 512.655 392.836 514.698 392.109C515.413 383.241 514.695 373.847 514.674 364.901L514.745 307.831C514.782 303.829 516.531 282.06 515.214 279.62L509.412 278.987Z"/>
	<path fill="white" fill-opacity="0.011764706" d="M800.417 292.466C803.556 290.567 806.56 288.819 809.984 287.465C810.581 299.629 814.06 330.559 809.758 340.279C808.281 341.43 806.986 342.234 805.298 343.043C806.47 330.814 807.269 305.131 803.96 293.763L800.417 292.466Z"/>
	<path fill="white" fill-opacity="0.011764706" d="M484.617 860.386C483.907 858.422 483.636 856.445 483.58 854.356C483.362 846.281 484.574 838.131 484.459 830.024C484.308 819.426 483.022 808.732 483.592 798.142C483.701 796.113 484.11 794.355 484.85 792.457C490.234 814.501 492.613 838.689 484.617 860.386Z"/>
	<path d="M2712.87 657.143L2715.22 658.649C2716.42 667.543 2716.95 717.593 2714.49 724.11C2715.2 725.963 2715.5 727.563 2715.56 729.531C2716.2 750.815 2716.83 968.292 2714.51 974.211C2716.19 979.279 2716.82 1053.42 2714.97 1057.42C2714.71 1057.99 2714.22 1058.52 2713.84 1058.99C2713.04 1059.27 2712.39 1059.49 2711.55 1059.59C2703.74 1060.5 2671.01 1061.28 2665.38 1057.16C2665.65 1056.63 2665.66 1056.62 2665.91 1055.99C2667.94 1050.85 2668.13 1020.4 2665.95 1015.67L2662.87 1015.23C2660.88 1020.2 2656.91 1025.85 2653.57 1029.99C2637.45 1049.99 2613.91 1063.71 2588.25 1066.2C2561.66 1068.79 2534.33 1061.66 2513.61 1044.46C2486.47 1021.92 2473.88 980.96 2470.62 947C2466.29 901.929 2470.88 843.541 2501.08 807.154C2518.05 786.696 2541.23 775.059 2567.57 772.748C2601.71 769.752 2629.61 779.496 2651.48 806.817C2654.94 811.132 2660.16 821.729 2663.91 824.485C2665.38 825.572 2665.86 825.325 2667.51 824.985L2667.07 824.17C2668.11 823.192 2667.79 822.968 2667.83 821.605L2666.67 822.634L2667.83 822.019C2667.67 792.983 2667.03 763.968 2667.17 734.928C2667.29 711.434 2668.4 687.591 2667.21 664.157C2667.09 661.716 2666.8 659.874 2665.7 657.664C2681.2 656.44 2697.3 657.187 2712.87 657.143ZM2592.75 1024.1C2613.17 1024.19 2636.82 1020.33 2651.94 1005.48C2665.63 992.039 2666.94 975.522 2666.93 957.429L2666.77 899.684C2666.7 885.873 2667.93 870.025 2664.58 856.555C2662.43 847.717 2657.91 839.633 2651.5 833.177C2637.3 818.937 2614.53 814.375 2595.02 814.458C2594.46 814.46 2593.89 814.482 2593.33 814.5C2572.78 816.679 2553.51 822.417 2539.84 839.053C2520.82 862.203 2521.53 891.652 2521.57 919.826C2521.59 931.571 2521.22 943.492 2522.44 955.181C2524.56 975.435 2532.6 995.44 2548.8 1008.5C2561.37 1018.64 2576.9 1022.92 2592.75 1024.1Z"/>
	<path d="M2262.52 772.5C2263.41 772.429 2264.3 772.37 2265.19 772.324C2299.91 770.502 2335.39 779.697 2361.49 803.443C2390.83 830.144 2401.64 870.111 2403.31 908.487C2405.11 949.891 2398.13 995.297 2369 1026.93C2346.09 1051.81 2315.58 1064.93 2281.99 1066.39C2251.47 1068.59 2218.76 1060.22 2194.63 1041.1C2166.19 1018.55 2149.5 982.183 2145.39 946.618C2140.24 902.035 2148.19 851.207 2176.76 815.304C2198.52 787.96 2228.6 776.392 2262.52 772.5ZM2286.35 1024.5C2305.18 1022.11 2322.54 1015.51 2334.57 1000.07C2352.92 976.517 2351.49 945.727 2351.43 917.564C2351.4 905.018 2351.83 892.196 2350.14 879.739C2347.41 859.595 2338.55 839.88 2321.94 827.46C2303.95 814.005 2280.83 812.198 2259.23 814.5C2238.6 819.116 2221.73 826.421 2210.06 845.041C2195.35 868.515 2196.46 895.011 2196.51 921.58C2196.54 936.886 2196.29 952.139 2199.84 967.129C2204.34 986.117 2214.33 1004.19 2231.31 1014.61C2245.81 1023.52 2269.32 1028.34 2286.35 1024.5Z"/>
	<path d="M2919.03 772.5C2943.49 771.697 2967.3 774.56 2989.36 785.811C3017.16 799.99 3037.55 825.548 3047.05 855.099C3051.83 869.97 3061.22 918.5 3054.54 931.468C3030.58 932.365 3006.38 931.72 2982.4 931.725L2849.88 931.791C2854.73 939.911 2850.05 966.773 2862.68 987.798C2873.79 1006.31 2892.03 1017.91 2912.8 1022.85C2936.57 1028.49 2964.12 1023.97 2984.87 1010.98C2992.48 1006.22 3006.52 994.702 3008.67 985.504C3010.97 982.952 3011.92 981.322 3015.22 980.238C3021.74 983.096 3040.76 999.031 3047.22 1004.57C3047.39 1008.86 3040.02 1018.21 3037.28 1021.53C3015.09 1048.51 2984.5 1062.52 2950.08 1065.87C2914.87 1069.29 2876.61 1061.71 2848.9 1038.67C2821.33 1015.73 2805.12 980.295 2801.91 944.962C2797.87 900.452 2803.67 850.795 2833.41 815.418C2855.25 789.435 2885.55 775.404 2919.03 772.5ZM2848.44 896.899C2876.83 897.678 2905.34 897.162 2933.75 897.131C2956.87 897.163 2980.25 897.946 3003.34 896.97C3006.99 890.415 3003.2 871.525 3001.09 864.393C2995.7 846.138 2983.86 829.91 2966.89 820.884C2952.02 812.971 2935.06 810.578 2918.45 812.5C2896.15 817.382 2876.71 826.667 2863.99 846.596C2859.37 853.834 2855.73 862.308 2853.83 870.695C2852.14 878.141 2852.4 890.661 2848.44 896.899Z"/>
	<path d="M1853.29 814.527C1860.02 810.646 1865.27 798.673 1870.01 792.362C1878.26 781.39 1889.32 774.509 1903.01 772.735C1917.72 770.827 1933.46 773.708 1945.22 783.108C1955.21 791.091 1962.62 804.079 1963.98 816.844C1967.29 814.429 1968.85 810.245 1970.88 806.761C1980.38 790.454 1989.26 779.511 2008.42 774.631C2023.04 770.908 2042.71 771.285 2055.92 779.3C2069.56 787.579 2076.38 803.245 2079.91 818.205C2082.32 828.356 2083.48 838.995 2083.94 849.404C2085.63 888.122 2084.45 927.263 2084.42 966.018C2084.39 994.891 2085.9 1024.73 2084.08 1053.5C2083.94 1055.72 2083.5 1057.34 2082.32 1059.26C2068.74 1061.09 2053.09 1059.61 2039.32 1059.36C2042.95 1051.65 2040.79 871.659 2039.55 850.779C2039.16 844.352 2038.24 838.151 2036.11 832.047C2033.66 825.039 2029.71 817.598 2022.64 814.413C2013.73 810.406 2000.17 811.285 1991.29 814.88C1982.47 818.432 1975.61 825.6 1972.44 834.561C1966.51 850.965 1969.02 895.342 1968.98 914.546C1968.79 950.369 1968.95 986.193 1969.44 1022.01C1969.56 1030.64 1972.13 1051.86 1968.89 1059.06C1968.79 1059.26 1968.68 1059.46 1968.58 1059.66C1954.82 1061.41 1939.29 1059.93 1925.37 1059.83C1926.18 1057.66 1925.63 872.961 1924.42 853.816C1923.89 845.539 1922.77 837.016 1919.66 829.274C1916.87 822.341 1911.73 816.712 1904.74 813.927C1896.1 810.486 1885.64 811.285 1877.23 815.033C1862.98 821.389 1859.79 832.317 1854.55 845.822C1857.11 854.245 1855.25 881.398 1855.29 891.946C1855.49 944.857 1856.04 997.908 1854.79 1050.8C1854.72 1053.5 1854.73 1056.21 1853.56 1058.68C1849.43 1061.65 1816.67 1059.59 1809.91 1059.41C1810.42 1058.54 1810.83 1057.73 1811.07 1056.75C1813.25 1047.68 1811.36 996.741 1811.35 983.033L1811.24 845.699C1811.2 825.659 1811.78 805.497 1811.24 785.474C1811.17 783.042 1810.98 781.365 1809.69 779.251C1824.58 778.822 1839.52 779.099 1854.41 779.138C1854.78 779.74 1854.88 779.842 1855.15 780.427C1858.53 787.698 1855.79 807.045 1853.29 814.527Z"/>
	<path d="M1370.46 680.499C1406 679.233 1441.9 680.318 1477.48 680.317C1511.64 680.316 1546.14 679.187 1580.26 680.463C1580.51 680.938 1580.99 681.788 1581.16 682.355C1582.73 687.519 1582.2 721.78 1580.22 725.143C1563.31 726.322 1545.74 725.458 1528.77 725.45C1488.34 725.432 1447.76 724.66 1407.35 725.709C1412.32 734.4 1396.36 856.919 1400.77 865.027C1404.82 865.816 1408.67 860.031 1411.2 857.094C1424.19 842.009 1435.96 830.722 1455.91 825.274C1485.42 817.214 1520.74 822.184 1547.11 837.505C1571.78 851.836 1588.14 874.985 1595.32 902.404C1604.36 936.963 1601.24 976.08 1583 1007.14C1568.79 1031.33 1545.72 1051.31 1518.22 1058.5C1513.76 1061.65 1504.01 1063.11 1498.49 1064.04C1449.1 1072.37 1402.76 1061.88 1366.03 1027.18C1357.86 1019.46 1351.37 1006.78 1342.38 1000.62C1342.21 1000.5 1342.03 1000.39 1341.85 1000.28C1351.76 996.133 1373.09 979.204 1381.02 971.535C1386.01 974.819 1393.45 987.056 1397.65 992.109C1412.44 1009.92 1434.85 1020.01 1457.68 1022.04C1480.32 1024.05 1504.63 1020.36 1522.46 1005.25C1537.72 992.319 1544.69 973.822 1546.3 954.295C1548.16 931.843 1545.78 907.732 1530.56 889.984C1516.91 874.075 1496.69 865.743 1476.05 864.341C1457.44 863.077 1435.02 867.178 1419.42 877.71C1411.69 882.933 1405.44 889.429 1398.46 895.513L1354.54 889.668C1358.56 883.603 1365.52 752.704 1366.53 734.687C1367.5 717.403 1366.39 697.263 1370.46 680.499Z"/>
	<path d="M3133.54 657.512C3151.29 656.553 3169.28 657.073 3187.05 657.071L3277.61 657.145C3279.73 659.871 3279.58 661.077 3279.72 664.492C3281.26 702.961 3279.18 742.174 3279.1 780.707L3279.68 986.108C3279.67 991.04 3278.24 1014.65 3280.94 1017.43C3281.08 1017.57 3283.14 1017.83 3283.49 1017.9C3303.65 1018.51 3323.89 1018.01 3344.05 1017.94C3354.14 1017.9 3364.87 1017.23 3374.86 1018.58C3376.59 1025.41 3377.32 1053.92 3374.17 1059.45C3364.41 1060.44 3354.01 1059.78 3344.17 1059.76L3290.14 1059.67C3238.32 1059.67 3186.35 1060.62 3134.55 1059.41C3134.84 1058.84 3134.86 1058.83 3135.12 1058.15C3136.73 1053.89 3136.36 1022.41 3134.29 1018.05L3228.55 1017.88C3229.05 1017.07 3229.33 1016.26 3229.55 1015.33C3231.89 1005.41 3230.24 943.717 3230.27 929.176L3230.36 781.114C3230.35 755.999 3230.89 730.744 3230.28 705.642C3230.21 702.905 3229.91 701.006 3228.43 698.644C3197.12 697.71 3165.59 698.617 3134.26 698.468C3134.46 698.067 3134.83 697.376 3134.97 696.904C3136.54 691.595 3136.21 661.994 3133.54 657.512Z"/>
	<path d="M1037.01 779.184C1071.02 778.472 1105.17 779.139 1139.2 779.187C1154.38 779.209 1170.82 780.511 1185.83 778.506C1184.23 791.632 1185.17 805.631 1185.21 818.867L1185.53 889.457C1185.78 931.683 1183.65 974.306 1185.04 1016.45C1186.51 1017.81 1186.93 1017.89 1188.91 1018.34C1203.41 1017.26 1218.5 1018.02 1233.06 1017.97C1247.1 1017.93 1262.49 1016.68 1276.36 1018.67C1276.71 1019.35 1277.01 1020.04 1277.26 1020.77C1279.22 1026.5 1279 1054.5 1276.52 1059.62C1249 1060.72 1221.12 1059.78 1193.56 1059.78L1037.47 1059.68C1037.29 1045.87 1037.21 1032.06 1037.22 1018.25C1069.99 1017.24 1103.01 1018.05 1135.8 1018.03C1136.41 952.37 1136.45 886.701 1135.92 821.036C1103.15 820.106 1070.11 820.977 1037.31 820.983C1036.78 807.08 1037.04 793.098 1037.01 779.184Z"/>
	<path d="M1159.11 652.407C1169.17 652.652 1179.23 653.505 1187.24 660.298C1193.93 665.972 1196.7 673.999 1197.4 682.536C1198.19 692.316 1196.89 702.906 1190.27 710.586C1182.87 719.18 1172.97 720.612 1162.33 721.54C1152.3 721.424 1142.21 720.304 1134.13 713.779C1127.45 708.376 1124.4 700.712 1123.51 692.335C1122.49 682.729 1123.11 671.842 1129.52 664.082C1136.97 655.075 1148.16 653.38 1159.11 652.407Z"/>
	<path fill="white" fill-opacity="0.0078431377" d="M3277.61 657.145C3280.41 656.9 3282.35 656.233 3284.81 657.762C3286.07 668.843 3285.26 680.511 3285.16 691.657L3284.28 759.599C3283.97 824.605 3284.27 889.612 3285.16 954.613C3285.2 964.231 3286.85 1013.01 3283.49 1017.9C3283.14 1017.83 3281.08 1017.57 3280.94 1017.43C3278.24 1014.65 3279.67 991.04 3279.68 986.108L3279.1 780.707C3279.18 742.174 3281.26 702.961 3279.72 664.492C3279.58 661.077 3279.73 659.871 3277.61 657.145Z"/>
	<path fill="white" fill-opacity="0.011764706" d="M2712.87 657.143C2715.79 656.787 2716.48 656.29 2719.02 657.913C2722.71 667.075 2719.97 697.022 2720.1 708.219C2721.05 769.197 2721.34 830.184 2720.98 891.168C2720.63 946.206 2719.22 1001.03 2720.71 1056.09L2720.06 1054.78L2720.69 1058.74C2718.38 1058.98 2716.16 1059.07 2713.84 1058.99C2714.22 1058.52 2714.71 1057.99 2714.97 1057.42C2716.82 1053.42 2716.19 979.279 2714.51 974.211C2715.33 972.876 2715.99 971.613 2716.23 970.041C2717.53 961.496 2716.51 951.486 2716.73 942.763C2716.97 933.026 2718.08 923.27 2718.68 913.545C2721.89 861.549 2718.7 809.914 2717.2 757.986C2717.01 751.153 2718.42 731.762 2716.55 726.43C2716.35 725.863 2714.95 724.628 2714.49 724.11C2716.95 717.593 2716.42 667.543 2715.22 658.649L2712.87 657.143Z"/>
	<path fill="white" fill-opacity="0.011764706" d="M1185.83 778.506L1188.91 778.791C1190.12 780.428 1190.29 781.736 1190.43 783.743C1190.88 790.087 1190 796.484 1190.06 802.841C1190.4 822.396 1190.53 841.954 1190.45 861.512C1190.55 913.789 1191.31 966.11 1188.91 1018.34C1186.93 1017.89 1186.51 1017.81 1185.04 1016.45C1183.65 974.306 1185.78 931.683 1185.53 889.457L1185.21 818.867C1185.17 805.631 1184.23 791.632 1185.83 778.506Z"/>
	<path fill="white" fill-opacity="0.015686275" d="M1854.55 845.822C1855.14 846.425 1856.52 847.483 1856.87 848.179C1858.78 851.932 1857.67 870.429 1857.85 875.703C1858.25 887.488 1859.89 899.207 1860.28 911.001C1861.1 936.142 1860.44 961.538 1860.28 986.699C1860.21 995.86 1860.9 1052.12 1858.83 1055.33L1859.4 1055.5L1859.14 1058.27C1857.29 1058.42 1855.42 1058.64 1853.56 1058.68C1854.73 1056.21 1854.72 1053.5 1854.79 1050.8C1856.04 997.908 1855.49 944.857 1855.29 891.946C1855.25 881.398 1857.11 854.245 1854.55 845.822Z"/>
	<path fill="white" fill-opacity="0.023529412" d="M2714.49 724.11C2714.95 724.628 2716.35 725.863 2716.55 726.43C2718.42 731.762 2717.01 751.153 2717.2 757.986C2718.7 809.914 2721.89 861.549 2718.68 913.545C2718.08 923.27 2716.97 933.026 2716.73 942.763C2716.51 951.486 2717.53 961.496 2716.23 970.041C2715.99 971.613 2715.33 972.876 2714.51 974.211C2716.83 968.292 2716.2 750.815 2715.56 729.531C2715.5 727.563 2715.2 725.963 2714.49 724.11Z"/>
	<path fill="white" fill-opacity="0.011764706" d="M2662.87 1015.23L2665.95 1015.67C2668.13 1020.4 2667.94 1050.85 2665.91 1055.99C2665.66 1056.62 2665.65 1056.63 2665.38 1057.16L2665.47 1058.54L2664.6 1059.45L2662.6 1058.8C2657.21 1051.33 2664.65 1025.6 2662.87 1015.23Z"/>
	<path fill="white" fill-opacity="0.043137256" d="M678.197 528.923C672.746 522.345 667.242 515.234 663.236 507.674C670.781 512.083 678.267 516.32 686.199 519.999C683.332 520.281 681.432 520.112 679.02 521.861C678.454 524.262 678.248 526.459 678.197 528.923Z"/>
</svg>
